<svg xmlns="http://www.w3.org/2000/svg" version="1" viewBox="-40 0 360 360" style="background: white;"><path fill="#FFF" d="M7 174c4 3 4 9 2 13l-1-2c-1-4-2-7-1-11zM183 190c0-2 0-4 2-5 3-1 7 1 7 4l-9 1zM83 188c3-2 10 0 10 4H82l1-4zM103 281h71c-8 7-18 10-29 11s-23-1-33-6l-9-5z"/><path d="M117 0c11-1 23 1 34 2 13 1 26 0 38 4 10 4 18 10 27 14 10 4 16 12 22 20l18 23c3 5 7 9 9 14l3 12v20l-1 22v10l14 7 3 4c3 12 5 25 3 37 0 5-1 10-4 15l-7 13c-4 9-4 19-10 27-2 5-8 6-12 9-2 1-2 3-3 5l-8 31-5 9-8 9c-7 6-13 14-21 20-8 8-17 15-28 20l-15 7-19 4c-5 2-11 2-17 2l-14-3c-16-7-27-19-40-28l-10-9c-3-5-7-8-9-13l-7-16-6-18-3-12-4-5c-5-3-10-5-14-9-3-3-4-7-6-10-5-9-10-18-13-28l-3-18-1-31 1-2 14-3 1-4c-3-9-7-18-8-27a470 470 0 0 1 9-67c2-7 7-12 12-17l10-11 8-4 20-10 24-6c8-3 17-8 26-9m28 82l-17 7-8 4-9-2-21-10c-10-3-21-3-30 0-7 3-14 5-19 11-6 5-10 12-12 20v16c1 4 3 8 2 12l-1 18c0 6-1 12-4 17l-2-1c-4-5-7-10-12-13-1-1-3 0-5 1-1 1-2 2-1 4 6 7 14 12 21 18l4 8c1 6 2 12 0 18l-4-8c-3-5-4-11-8-16-3 0-5 2-7 4-3 4-4 9-3 13 3 13 9 26 16 38 2 4 8 7 13 8-1-13-7-25-6-38l3 3c5 7 4 16 7 24 4 21 8 43 19 62 7 14 18 26 31 35 8 7 16 13 26 16 8 3 16 2 24 2s16-1 23-4c8-3 15-8 23-12a176 176 0 0 0 44-44c6-9 9-19 11-29l7-38 4-16v-20c0-4 0-7 2-11l6-10 8-13h4c-1 4-4 7-6 10-4 6-6 13-7 20l-1 16-5 31-1 9 4 2 6-13 12-29c6-11 6-24 4-36-1-5-2-11-6-16-2-1-5-3-7-2-4 2-6 6-8 9-3 5-3 10-6 14l-4-5c-4-7-4-15-3-22 0-5 1-9-1-13-1-5-4-9-6-14-1-4-4-8-6-11-2-5-6-10-9-14-4-4-9-6-14-9l-11-4c-6-2-13-2-19-3-12 0-23 3-35 6M7 174c-1 4 0 7 1 11l1 2c2-4 2-10-2-13z"/><path d="M164 166l31-3c7 0 13 3 19 6l10 5 3 2-4 2-10-5-10-2c-12 0-24 2-36 5l-11 4c-1-3-1-6 1-9 1-2 4-4 7-5zM117 173c2 2 2 6 2 9-4 0-7-2-11-3-11-2-23-4-35-3l-9 2-9 6c-1 1-3 0-4-1l2-2 10-7c5-4 10-7 17-7 10-1 20 0 29 1 4 1 7 2 8 5zM266 178c-1-2-1-4 1-5 5 6 9 12 8 20-1 5-5 11-11 12l5-10c2-3 3-8 2-11s-4-4-5-6z"/><path d="M171 178c5-3 10-5 15-4 7 0 13 2 19 3l-2 1c-8 1-15-2-23 0s-13 8-20 12l-4 1c3-6 9-10 15-13zM70 180c9-3 19-3 28-1l10 5-18-3c-10 0-19 4-29 4 2-3 6-4 9-5z"/><path d="M174 183c2-2 5-3 8-3a92 92 0 0 1 35 7l-2 4-13-2c-6 0-9 5-15 5-4 0-7-4-10-6l-11 4c1-4 4-7 8-9m9 7l9-1c0-3-4-5-7-4-2 1-2 3-2 5zM69 187c5-2 10-4 16-4 9 1 18 4 27 7l-1 4-12-1c-5 0-9 2-14 1l-18-1-6-1 8-5m14 1l-1 4h11c0-4-7-6-10-4zM123 202c0-2 5-3 6-1l-1 13v22c1 2 0 3-1 3h-5l-1-17c0-7 0-13 2-20zM18 212c0-4 1-8 4-11l1 12 2 11c-5-3-7-8-7-12z"/><path d="M111 233l3 1-2 14c7 3 13 8 21 8 6 1 11-4 17-6 4-2 9-2 14-1-1 2-4 3-6 4l-19 8c-4 2-9 2-14 0-7-3-13-7-20-12 0-4 2-9 4-13 0-1 0-3 2-3zM144 233l7 1-1 9c-3-2-5-6-6-10zM165 276c9-2 19-5 28-5l-7 7-18 13-10 5c-10 3-21 3-31 1-11-2-22-7-30-14l-8-9c15 1 29 3 44 3l32-1m-62 5l9 5c10 5 22 7 33 6s21-4 29-11h-71z"/></svg>