<svg width="151" height="64" viewBox="0 0 151 64" fill="none" xmlns="http://www.w3.org/2000/svg">
<line x1="130" y1="51.75" x2="135" y2="51.75" stroke="black" stroke-opacity="0.52" stroke-width="1.5"/>
<line x1="97" y1="51.75" x2="126" y2="51.75" stroke="black" stroke-opacity="0.52" stroke-width="1.5"/>
<path d="M114.94 51.5C114.94 50.7051 114.94 50 115.44 50C115.94 50 115.94 50.6925 115.94 51.5C115.94 52.5 115.94 53 115.44 53C114.94 53 114.94 52.5 114.94 51.5Z" fill="#FAD85B"/>
<path d="M115.94 51.5C115.94 50.7051 115.94 50 116.44 50C116.94 50 116.94 50.6925 116.94 51.5C116.94 52.5 116.94 53 116.44 53C115.94 53 115.94 52.5 115.94 51.5Z" fill="#FAD85B"/>
<path d="M116.94 51.5C116.94 50.7051 116.94 50 117.44 50C117.94 50 117.94 50.6925 117.94 51.5C117.94 52.5 117.94 53 117.44 53C116.94 53 116.94 52.5 116.94 51.5Z" fill="#FAD85B"/>
<path d="M119.94 51.5C119.94 50.7051 119.94 50 120.44 50C120.94 50 120.94 50.6925 120.94 51.5C120.94 52.5 120.94 53 120.44 53C119.94 53 119.94 52.5 119.94 51.5Z" fill="#FAD85B"/>
<path d="M120.94 51.5C120.94 50.7051 120.94 50 121.44 50C121.94 50 121.94 50.6925 121.94 51.5C121.94 52.5 121.94 53 121.44 53C120.94 53 120.94 52.5 120.94 51.5Z" fill="#FAD85B"/>
<path d="M121.94 51.5C121.94 50.7051 121.94 50 122.44 50C122.94 50 122.94 50.6925 122.94 51.5C122.94 52.5 122.94 53 122.44 53C121.94 53 121.94 52.5 121.94 51.5Z" fill="#FAD85B"/>
<path d="M103.431 37.9967C102.431 33.4967 103.342 26.8802 104.437 24.3613L110.269 46.3086C108.5 45.5897 104.458 42.6199 103.431 37.9967Z" fill="#0C0C0C"/>
<path d="M134.779 37.9999C135.779 33.4999 134.867 26.8833 133.772 24.3645L127.94 46.3117C129.71 45.5929 133.751 42.623 134.779 37.9999Z" fill="#0C0C0C"/>
<path d="M106.5 13.5C109 15 110 14.0001 110 14.0001L112.5 11.5001C112.5 11.5001 108.643 10.5 107.643 10C106.643 9.5 107 8.5 107 8.5C107 8.5 106.5 9.00019 106.5 10.0001C106.5 11 108.5 12 108.5 12.5C108.5 13 104.5 11 104.5 11C104.5 11 104 12 106.5 13.5Z" fill="#0C0C0C"/>
<path d="M131.999 13.5C129.499 15 128.499 14.0001 128.499 14.0001L125.999 11.5001C125.999 11.5001 129.856 10.5 130.856 10C131.856 9.5 131.499 8.5 131.499 8.5C131.499 8.5 131.999 9.00019 131.999 10.0001C131.999 11 129.999 12 129.999 12.5C129.999 13 133.999 11 133.999 11C133.999 11 134.499 12 131.999 13.5Z" fill="#0C0C0C"/>
<path d="M115.94 50.5C106.94 50.5 104 25.5 104 25.5H134C134 25.5 131.44 50.5 122.44 50.5H115.94Z" fill="white"/>
<path d="M134 20.8261L134 25.5C134 25.5 126.762 35.5 119.036 35.5C111.659 35.5 104 25.5 104 25.5C103.84 24.7365 104.071 20.8261 104.071 20.8261C104.071 14.8478 110.771 10.5 119.036 10.5C127.3 10.5 134 13.9225 134 20.8261Z" fill="white"/>
<circle cx="125.5" cy="20.5" r="5" fill="#FF974F"/>
<circle cx="125.5" cy="20.5" r="3.5" fill="white"/>
<circle cx="112.5" cy="20.5" r="5" fill="#FF974F"/>
<circle cx="112.5" cy="20.5" r="3.5" fill="white"/>
<circle cx="112.5" cy="20.5" r="2" fill="#020202"/>
<circle cx="125.5" cy="20.5" r="2" fill="#020202"/>
<path d="M118.521 28.5244C118.715 28.8511 119.188 28.8511 119.382 28.5243L121.06 25.6924C121.258 25.3591 121.018 24.9375 120.63 24.9375H117.273C116.886 24.9375 116.645 25.3591 116.843 25.6924L118.521 28.5244Z" fill="black"/>
<path d="M117.159 47.5C111.764 47.5 108.737 32.1794 109.666 30.5946C110.595 29.0097 127.08 29.2663 128.248 30.5946C129.415 31.9228 126.449 47.5 121.055 47.5H117.159Z" fill="#FF974F"/>
<path d="M113.5 31.5H110.5C110.5 31.8974 111.2 32.6923 112 32.6923C112.8 32.6923 113.333 31.8974 113.5 31.5Z" fill="#0C0C0C"/>
<path d="M118 31.5H115C115 31.8974 115.7 32.6923 116.5 32.6923C117.3 32.6923 117.833 31.8974 118 31.5Z" fill="#0C0C0C"/>
<path d="M122.5 31.5H119.5C119.5 31.8974 120.2 32.6923 121 32.6923C121.8 32.6923 122.333 31.8974 122.5 31.5Z" fill="#0C0C0C"/>
<path d="M127 31.5H124C124 31.8974 124.7 32.6923 125.5 32.6923C126.3 32.6923 126.833 31.8974 127 31.5Z" fill="#0C0C0C"/>
<path d="M120.5 35H117.5C117.5 35.3974 118.2 36.1923 119 36.1923C119.8 36.1923 120.333 35.3974 120.5 35Z" fill="#0C0C0C"/>
<path d="M115 35H112C112 35.3974 112.7 36.1923 113.5 36.1923C114.3 36.1923 114.833 35.3974 115 35Z" fill="#0C0C0C"/>
<path d="M126 35H123C123 35.3974 123.7 36.1923 124.5 36.1923C125.3 36.1923 125.833 35.3974 126 35Z" fill="#0C0C0C"/>
<path d="M124.5 38.5H121.5C121.5 38.8974 122.2 39.6923 123 39.6923C123.8 39.6923 124.333 38.8974 124.5 38.5Z" fill="#0C0C0C"/>
<path d="M120.5 38.5H117.5C117.5 38.8974 118.2 39.6923 119 39.6923C119.8 39.6923 120.333 38.8974 120.5 38.5Z" fill="#0C0C0C"/>
<path d="M116.5 38.5H113.5C113.5 38.8974 114.2 39.6923 115 39.6923C115.8 39.6923 116.333 38.8974 116.5 38.5Z" fill="#0C0C0C"/>
<path d="M117.5 42.5H114.5C114.5 42.8974 115.2 43.6923 116 43.6923C116.8 43.6923 117.333 42.8974 117.5 42.5Z" fill="#0C0C0C"/>
<path d="M123.5 42.5H120.5C120.5 42.8974 121.2 43.6923 122 43.6923C122.8 43.6923 123.333 42.8974 123.5 42.5Z" fill="#0C0C0C"/>
<path d="M120.5 45.5H117.5C117.5 45.8974 118.2 46.6923 119 46.6923C119.8 46.6923 120.333 45.8974 120.5 45.5Z" fill="#0C0C0C"/>
<path d="M93.5 33.5V52.5H97.5V33.5H93.5ZM93.5 27V31H97.5V27H93.5Z" fill="white"/>
<path d="M75.5 6V39.6207H79.5V6H75.5ZM75.5 39.6207V51H79.5V39.6207H75.5ZM78.7932 41.1464L88.2932 33.0938L85.7068 30.0425L76.2068 38.095L78.7932 41.1464ZM76.1238 41.0719L88.1238 52.4512L90.8762 49.5488L78.8762 38.1694L76.1238 41.0719Z" fill="white"/>
<path d="M56 48.5H54V49.1056L54.3359 49.6094L56 48.5ZM50 32.5C45.4244 32.5 42.5 36.9344 42.5 42H46.5C46.5 38.0656 48.5756 36.5 50 36.5V32.5ZM42.5 42C42.5 44.3028 43.071 46.5961 44.285 48.3767C45.5329 50.2069 47.4854 51.5 50 51.5V47.5C49.0146 47.5 48.2171 47.0431 47.59 46.1233C46.929 45.1539 46.5 43.6972 46.5 42H42.5ZM50 51.5C51.9946 51.5 54.158 51.0764 55.7665 49.3732C57.3409 47.7062 58 45.2137 58 42H54C54 44.7863 53.4091 46.0438 52.8585 46.6268C52.342 47.1736 51.5054 47.5 50 47.5V51.5ZM58 42C58 38.6917 57.1716 36.2181 55.5392 34.5858C53.9069 32.9534 51.8083 32.5 50 32.5V36.5C51.1917 36.5 52.0931 36.7966 52.7108 37.4142C53.3284 38.0319 54 39.3083 54 42H58ZM54 33V48.5H58V33H54ZM54.3359 49.6094C54.7068 50.1657 55.4382 50.8776 56.5291 51.0979C57.7678 51.348 58.9587 50.8698 59.9142 49.9142L57.0858 47.0858C56.9473 47.2243 56.9039 47.2195 56.9722 47.1949C57.0536 47.1656 57.1813 47.1489 57.3209 47.1771C57.4452 47.2022 57.5249 47.2515 57.5625 47.2797C57.596 47.3048 57.6276 47.3359 57.6641 47.3906L54.3359 49.6094Z" fill="white"/>
<path d="M33.5 41L35.4977 41.0951L35.5 41.0476V41H33.5ZM31.5 6V41H35.5V6H31.5ZM31.5023 40.9049C31.4104 42.8349 31.6635 45.7753 32.9283 48.1139C33.5795 49.3181 34.5589 50.4688 35.9982 51.1479C37.4587 51.8369 39.1557 51.9284 41.0153 51.4325L39.9847 47.5675C38.8443 47.8716 38.1455 47.7381 37.7049 47.5303C37.2432 47.3124 36.8163 46.8944 36.4467 46.2111C35.6698 44.7747 35.423 42.6651 35.4977 41.0951L31.5023 40.9049ZM26.5 15.5H40.5V11.5H26.5V15.5Z" fill="white"/>
<path d="M63.5 41L65.4977 41.0951L65.5 41.0476V41H63.5ZM61.5 6V41H65.5V6H61.5ZM61.5023 40.9049C61.4104 42.8349 61.6635 45.7753 62.9283 48.1139C63.5795 49.3181 64.5589 50.4688 65.9982 51.1479C67.4587 51.8369 69.1557 51.9284 71.0153 51.4325L69.9847 47.5675C68.8443 47.8716 68.1455 47.7381 67.7049 47.5303C67.2432 47.3124 66.8163 46.8944 66.4467 46.2111C65.6698 44.7747 65.423 42.6651 65.4977 41.0951L61.5023 40.9049ZM56.5 15.5H70.5V11.5H56.5V15.5Z" fill="white"/>
<path d="M2 6.04581L1.91674 4.04754L0 4.1274V6.04581H2ZM0 6.04581V51.0458H4V6.04581H0ZM2.08326 8.04407C5.95539 7.88273 10.3718 8.24884 13.6857 9.51597C15.332 10.1455 16.5762 10.9483 17.3771 11.8936C18.1392 12.7931 18.5772 13.9069 18.5025 15.4001L22.4975 15.5998C22.6228 13.093 21.8483 10.9833 20.4291 9.30806C19.0488 7.67872 17.143 6.55548 15.1143 5.77978C11.0782 4.23651 6.04461 3.87554 1.91674 4.04754L2.08326 8.04407ZM18.5025 15.4001C18.3588 18.273 16.512 20.0952 13.3023 21.2415C10.0437 22.4053 5.82054 22.6642 2.08688 22.5018L1.91312 26.498C5.84613 26.669 10.673 26.4279 14.6477 25.0084C18.6714 23.5714 22.2412 20.7269 22.4975 15.5998L18.5025 15.4001Z" fill="white"/>
<path d="M12.5 34C12.8333 39.3333 11.5 50 17 50C22.5 50 23.5 34 23.5 34C23.5 34 23.5 56 19.5 60C16.8483 62.6517 12.5 61.5 12.5 58" stroke="white" stroke-width="4"/>
</svg>
